<?xml version="1.0" encoding="utf-8"?>
<!-- Generator: Adobe Illustrator 22.0.1, SVG Export Plug-In . SVG Version: 6.00 Build 0)  -->
<svg version="1.1" id="Layer_1" xmlns="http://www.w3.org/2000/svg" xmlns:xlink="http://www.w3.org/1999/xlink" x="0px" y="0px"
	 viewBox="0 0 30 30" style="enable-background:new 0 0 30 30;" xml:space="preserve">
<style type="text/css">
	.st0{fill:#FFFFFF;}
</style>
<g>
	<path class="st0" d="M7,9.6l0.2-0.4c0-0.1,0.1-0.1,0.1-0.2l0,0l0.3-0.2C8,8.2,8.4,7.9,8.9,7.5l0.4-0.2l0,0l0.1-0.1l0.4-0.2L4.6,4.4
		L4.8,5L7,9.6z"/>
	<path class="st0" d="M5.5,16.5c0-0.1,0-0.1,0-0.2l0,0v-0.4c0-0.2,0-0.6,0-0.9s0-0.6,0-0.9v-0.5l0,0c0-0.1,0-0.1,0-0.2L5.6,13
		l-0.4,0.1l-5,1.8l5.4,2L5.5,16.5z"/>
	<path class="st0" d="M13.8,5.4L13.8,5.4h0.4c0.2,0,0.6,0,0.9,0c0.2,0,0.6,0,0.9,0h0.4l0,0c0.1,0,0.1,0,0.2,0l0.4,0.1L15,0l-0.2,0.6
		L13,5.5l0.4-0.1C13.5,5.4,13.6,5.4,13.8,5.4z"/>
	<path class="st0" d="M20.8,7.2L20.8,7.2L20.8,7.2c0.2,0.2,0.5,0.4,0.6,0.5c0.2,0.2,0.5,0.5,0.8,0.8c0.1,0.2,0.2,0.4,0.4,0.5
		l0.1,0.1l0,0c0,0.1,0.1,0.1,0.1,0.2L23,9.8l2.5-5.2l-0.6,0.2L20.3,7l0.4,0.2C20.6,7.1,20.8,7.2,20.8,7.2z"/>
	<path class="st0" d="M24.4,17l5.4-2l-5.4-2l0.1,0.4c0,0.1,0,0.1,0,0.2l0,0v0.5c0,0.2,0,0.6,0,0.9c0,0.2,0,0.6,0,0.9v0.4l0,0
		c0,0.1,0,0.1,0,0.2L24.4,17z"/>
	<path class="st0" d="M16.2,24.6L16.2,24.6h-0.4c-0.2,0-0.6,0-0.9,0c-0.2,0-0.6,0-0.9,0h-0.4l0,0c-0.1,0-0.1,0-0.2,0l-0.4-0.1
		l0.1,0.4L15,30l1.9-5.5l-0.4,0.1C16.5,24.6,16.4,24.6,16.2,24.6z"/>
	<path class="st0" d="M22.8,20.6c0,0.1-0.1,0.1-0.1,0.1l0,0l-0.3,0.4c-0.2,0.4-0.6,0.8-1,1c-0.1,0.1-0.4,0.4-0.5,0.5
		c-0.1,0-0.1,0.1-0.3,0.1L20.3,23l5.2,2.5L23,20.2L22.8,20.6z"/>
	<path class="st0" d="M9.1,22.8L9.1,22.8l-0.2-0.2c-0.4-0.4-0.9-0.8-1.2-1.2l-0.2-0.4l0,0c0-0.1-0.1-0.1-0.1-0.2L7,20.2l-0.1,0.4
		l-2.2,4.9L9.9,23l-0.4-0.3C9.3,22.9,9.3,22.8,9.1,22.8z"/>
	<path class="st0" d="M21.9,20c1.1-1.5,1.6-3.2,1.6-5c0-2.6-1.2-5.2-3.5-6.9c-1.5-1.1-3.2-1.6-5-1.6c-2.6,0-5.1,1.2-6.9,3.5
		c-1.1,1.5-1.6,3.2-1.6,5c0,2.6,1.2,5.2,3.5,6.9c1.5,1.1,3.2,1.6,5,1.6C17.6,23.5,20.1,22.4,21.9,20z"/>
</g>
</svg>
