<?xml version="1.0" encoding="utf-8"?>
<!-- Generator: Adobe Illustrator 22.0.1, SVG Export Plug-In . SVG Version: 6.00 Build 0)  -->
<svg version="1.1" id="Layer_1" xmlns="http://www.w3.org/2000/svg" xmlns:xlink="http://www.w3.org/1999/xlink" x="0px" y="0px"
	 viewBox="0 0 30 30" style="enable-background:new 0 0 30 30;" xml:space="preserve">
<style type="text/css">
	.st0{fill:#FFFFFF;}
</style>
<path class="st0" d="M26.6,3.9C26.9,5.4,25.4,7,23,8.4c-6.9,3.8-7.1,11.8-7.1,11.8s3.9-5.4,7.3-6.9c-3.3,2.4-7.6,9.1-7.8,12.6
	c0-0.5-0.5-11.1-8.4-17c5.6,2.2,6.8,6.8,6.8,6.8S13.4,7.1,7,3.5C4.8,2.2,2.8,2.1,2.7,0c-3.7,3-3.4,10.3,1,13.9
	c2.9,2.4,6.4,3.6,8.4,4.2c2.1,2.7,2.1,11.9,2.1,11.9h2.1c0,0-0.2-4.3,0.6-6c2-0.5,6.2-1.8,9.7-4.6C31.3,15.6,30.7,6.8,26.6,3.9z"/>
</svg>
