<?xml version="1.0" encoding="utf-8"?>
<!-- Generator: Adobe Illustrator 22.0.1, SVG Export Plug-In . SVG Version: 6.00 Build 0)  -->
<svg version="1.1" id="Layer_1" xmlns="http://www.w3.org/2000/svg" xmlns:xlink="http://www.w3.org/1999/xlink" x="0px" y="0px"
	 viewBox="0 0 30 30" style="enable-background:new 0 0 30 30;" xml:space="preserve">
<style type="text/css">
	.st0{fill:#FFFFFF;}
</style>
<g>
	<g>
		<path class="st0" d="M10,0c1.9,3.6,3.5,7.2,2.9,11.3c0.1,0,0.2-0.1,0.2-0.1c0.8-2.9,3-4.6,5.5-5.9c2.6-1.3,5.5-2,8.3-2.5
			c0.1,0,0.1,0,0.3,0c-0.1,0.5-0.1,0.9-0.2,1.3c-0.7,3.3-1.6,6.4-3.5,9.2c-1.1,1.7-2.6,2.9-4.6,3.5c-0.1,0-0.1,0.1-0.3,0.2
			c4.2-0.6,7.7,0.9,11.3,2.8c-1,0.6-1.8,1.2-2.7,1.7c-2.6,1.6-5.3,3.1-8.3,3.8c-1,0.2-2.1,0.2-3.2,0.3c0.8,1.1,1.3,2.4,1.3,4.2
			c-0.9-0.4-1.7-0.6-2.4-1c-1.7-0.8-3.2-2-4.4-3.4c-0.9-1.1-1.5-2.3-1.5-3.8c-0.1,0-0.1,0-0.2-0.1c-1.7,1.9-3.3,3.9-5.1,5.9
			c-0.3-0.3-0.6-0.7-0.9-1.1c1.8-1.6,3.8-3.2,5.8-5c-0.8-0.2-1.4-0.3-2-0.5c-1.6-0.6-2.8-1.8-3.7-3.1c-0.9-1.3-1.3-2.1-2-3.5
			c-0.1-0.2-0.4-1.1-0.5-1.5c1.6,0,2.9,0.6,4.2,1.5C3.8,10,6.1,6.6,8,3.1C8.6,2.1,9.3,1.1,10,0z"/>
	</g>
</g>
</svg>
